<svg xmlns="http://www.w3.org/2000/svg" viewBox="0 0 20.73 23.62">
  <path fill="#00000020" d="M13.67,5.83c-1.87,0-3.73,0-5.59,0s-2.34.44-2.31,2.41c0,.62.09,1.24.16,1.86q.6,5.25,1.22,10.49c.07.62.14,1.24.17,1.85a1.1,1.1,0,0,1-1.16,1.17l-3.4-.24a1,1,0,0,1-.88-1.1,11.78,11.78,0,0,0-.18-4.62,13.12,13.12,0,0,1-.15-1.55c-.17-2.06-.35-4.12-.5-6.19C1,9,1,8.06,1,7.13S.89,5.06.87,4A6,6,0,0,0,.05,1.38C-.18,1,.38.25.86.37a26.38,26.38,0,0,0,9,.15C12.6.2,15.39.19,18.18,0c.87,0,1.32.47,1.25,1.37,0,.41-.11.82-.13,1.23a1.6,1.6,0,0,0,.94,1.78,1,1,0,0,1,.46.37,1,1,0,0,1,0,.57c0,.09-.11.24-.17.24-1,0-2.07.08-3.1.09-1.25,0-2.49,0-3.73,0ZM11.23,1.6v0c-1.24,0-2.48.05-3.72.14C6,1.82,4.43,2,2.89,2.14A1.1,1.1,0,0,0,2.05,3a5.63,5.63,0,0,0-.18.91c0,1.44-.12,2.9,0,4.33.29,4.13.62,8.25,1.22,12.34a4,4,0,0,0,.13.6,1.06,1.06,0,0,0,.85.8,5.53,5.53,0,0,0,1.22,0,.67.67,0,0,0,.43-.36,2.76,2.76,0,0,0,.17-.9c0-1.76-.34-3.5-.46-5.24C5.17,12,4.65,8.67,4.28,5.29c0-.5.45-1.14.88-1,2.57.51,5.16.11,7.73.23a41.83,41.83,0,0,0,4.33-.2,1.15,1.15,0,0,0,.85-.8A3.48,3.48,0,0,0,18,2.26a1,1,0,0,0-.61-.61,21.24,21.24,0,0,0-2.77-.19C13.5,1.46,12.37,1.55,11.23,1.6Z" />
</svg>