<svg xmlns="http://www.w3.org/2000/svg" viewBox="0 0 15.51 20.54">
  <path fill="#00000020" d="M7.18,20.33a50.34,50.34,0,0,1-6.3-.24A1,1,0,0,1,0,19c.1-.92.22-1.84.34-2.76a1.13,1.13,0,0,1,1.29-1,27.77,27.77,0,0,0,5.23.44,21.47,21.47,0,0,0,2.78-.1,1.8,1.8,0,0,0,1.76-1.8,10.32,10.32,0,0,0,.08-1.24c0-1.65.06-3.3.06-4.95a16.69,16.69,0,0,0-.81-6.11,2.89,2.89,0,0,1-.1-.6c-.06-.34.41-.9.72-.83.7.14,1.4.32,2.1.46C14.9.76,15.11,1,15,2.57A28.65,28.65,0,0,0,15.1,7.2c.2,2.36.26,4.74.35,7.11.05,1.23.06,2.47.06,3.71a8.56,8.56,0,0,1-.13,1.23,1.4,1.4,0,0,1-1.22,1.21c-.82.05-1.65.09-2.47.07C10.24,20.5,8.8,20.41,7.18,20.33ZM12.29,8.82h0c0,2,0,3.93,0,5.89q0,.46,0,.93a1.33,1.33,0,0,1-1,1.09,10.41,10.41,0,0,1-1.84.17c-1.44-.06-2.88-.22-4.32-.32-.83,0-1.65-.09-2.47-.09a1.25,1.25,0,0,0-1,.58A1.12,1.12,0,0,0,2.25,19a12.6,12.6,0,0,0,1.84.18c2.38,0,4.75.06,7.13.07.62,0,1.24,0,1.86-.07a1.17,1.17,0,0,0,1.1-.91c.13-.82.28-1.64.33-2.46.23-4.35-.57-8.65-.68-13a.77.77,0,0,0-.29-.53A.87.87,0,0,0,13,2.09c-.18,0-.45.13-.49.25a4.93,4.93,0,0,0-.19,1.21C12.28,5.3,12.29,7.06,12.29,8.82Z" />
</svg>